<svg width="1920" height="900" viewBox="0 0 1920 900" fill="none" xmlns="http://www.w3.org/2000/svg">
<g clip-path="url(#clip0_46_8)">
<rect width="1920" height="900" fill="#034833"/>
<rect width="1920" height="900" fill="#696969"/>
<rect opacity="0.6" width="1920" height="900" fill="#034833"/>
<g opacity="0.4" clip-path="url(#clip1_46_8)">
<path style="mix-blend-mode:multiply" d="M1703.08 815.516L1749.96 808.98L1798.33 802.232L1738.92 726.622L1703.08 815.516Z" fill="url(#paint0_linear_46_8)"/>
<path style="mix-blend-mode:multiply" d="M1394.43 692.239L1347.55 698.782L1299.18 705.529L1358.6 781.133L1394.43 692.239Z" fill="url(#paint1_linear_46_8)"/>
<path opacity="0.5" d="M1782 924.254L1954.52 935.279L1881.36 799.23L1782 924.254Z" stroke="white" stroke-miterlimit="10"/>
<path opacity="0.5" d="M1523.75 1001.47L1758.15 990.52L1592.5 855.472L1523.75 1001.47Z" stroke="white" stroke-miterlimit="10"/>
<path opacity="0.5" d="M1675 865.789L1787.5 856.574L1773.56 743.282L1675 865.789Z" stroke="white" stroke-miterlimit="10"/>
<path opacity="0.5" d="M1616.25 697.16L1715.72 709.998L1709.54 624.352L1616.25 697.16Z" stroke="white" stroke-miterlimit="10"/>
<path opacity="0.5" d="M251 779.562L350.468 792.4L344.293 706.754L251 779.562Z" stroke="white" stroke-miterlimit="10"/>
<path opacity="0.5" d="M1762.77 657.632L1729.83 622.959L1766.82 634.727L1762.77 657.632Z" stroke="white" stroke-miterlimit="10"/>
<path opacity="0.5" d="M1906.47 105.301L1879.38 84.8523L1927.17 80.2348L1906.47 105.301Z" stroke="white" stroke-miterlimit="10"/>
<path opacity="0.5" d="M1807.97 785.621L1836.07 759.591L1787.31 761.771L1807.97 785.621Z" stroke="white" stroke-miterlimit="10"/>
<path opacity="0.5" d="M208.964 701.887L237.062 675.856L188.306 678.037L208.964 701.887Z" stroke="white" stroke-miterlimit="10"/>
<path opacity="0.5" d="M1810.48 725.484L1780.64 558.187L1867.49 631.722L1810.48 725.484Z" stroke="white" stroke-miterlimit="10"/>
<path opacity="0.5" d="M1881.86 775.025L1858.5 680.371L1977.79 665.624L1881.86 775.025Z" stroke="white" stroke-miterlimit="10"/>
<path opacity="0.5" d="M1867.45 490.347L1946.16 479.602L1842.43 401L1867.45 490.347Z" stroke="white" stroke-miterlimit="10"/>
<path opacity="0.5" d="M110.45 920.347L189.164 909.602L85.4258 831L110.45 920.347Z" stroke="white" stroke-miterlimit="10"/>
<path opacity="0.5" d="M1905.25 623.157L1885.9 607.9L1922.11 596.638L1905.25 623.157Z" stroke="white" stroke-miterlimit="10"/>
<path opacity="0.5" d="M1736.95 158.835L1795.24 142.732L1766.37 59.9992L1736.95 158.835Z" stroke="white" stroke-miterlimit="10"/>
<path opacity="0.5" d="M1646.94 874.071L1669.88 879.428L1646.22 855L1646.94 874.071Z" stroke="white" stroke-miterlimit="10"/>
<path opacity="0.5" d="M1682.56 809.454L1631.95 777.06L1643.03 739.999L1682.56 809.454Z" stroke="white" stroke-miterlimit="10"/>
<path opacity="0.5" d="M70.5603 572.454L19.945 540.06L31.0317 502.999L70.5603 572.454Z" stroke="white" stroke-miterlimit="10"/>
<path opacity="0.5" d="M1418.25 828.123L1296.25 772.941L1400.23 732.966L1418.25 828.123Z" stroke="white" stroke-miterlimit="10"/>
<path opacity="0.5" d="M1429 802.945L1558.77 677.2L1580.65 821.934L1429 802.945Z" stroke="white" stroke-miterlimit="10"/>
<path opacity="0.5" d="M1786.11 364.466L1985.39 288.598L1815.73 183.001L1786.11 364.466Z" stroke="white" stroke-miterlimit="10"/>
<path opacity="0.5" d="M1762.29 266.908L1796.39 221.533L1711.97 208.662L1762.29 266.908Z" stroke="white" stroke-miterlimit="10"/>
<path opacity="0.5" d="M1362.55 969.026L1187.87 879.194L1328.54 829.289L1362.55 969.026Z" stroke="white" stroke-miterlimit="10"/>
<path opacity="0.5" d="M1172.68 882.942L1119.8 920.593L1072.38 834.998L1172.68 882.942Z" stroke="white" stroke-miterlimit="10"/>
<path opacity="0.5" d="M67.8688 80.2594L7.59938 104.368L-18.2753 10.0005L67.8688 80.2594Z" stroke="white" stroke-miterlimit="10"/>
<path opacity="0.5" d="M1433.25 726.294L1451.27 753.202L1464.05 704.465L1433.25 726.294Z" stroke="white" stroke-miterlimit="10"/>
<path opacity="0.5" d="M1715.35 380.566L1732.2 368.55L1691.84 350.999L1715.35 380.566Z" stroke="white" stroke-miterlimit="10"/>
<path opacity="0.5" d="M1639.72 530.603L1721.41 443.07L1531.97 471.823L1639.72 530.603Z" stroke="white" stroke-miterlimit="10"/>
<path opacity="0.5" d="M31.7152 431.603L113.407 344.07L-76.0315 372.823L31.7152 431.603Z" stroke="white" stroke-miterlimit="10"/>
<path opacity="0.5" d="M1642.84 644.244L1649.56 605.432L1604.63 616.026L1642.84 644.244Z" stroke="white" stroke-miterlimit="10"/>
<path opacity="0.2" d="M1782 965.254L1954.52 976.291L1881.37 840.235L1782 965.254Z" fill="white"/>
<path opacity="0.5" d="M1547.94 1036.93L1782.16 1026.46L1616.38 891.755L1547.94 1036.93Z" fill="#034833"/>
<path opacity="0.3" d="M1703 889.609L1815.61 880.128L1801.87 766.277L1703 889.609Z" fill="#83CD20"/>
<path opacity="0.5" d="M1640.13 733.441L1739.67 746.082L1733.73 659.811L1640.13 733.441Z" fill="#034833"/>
<path d="M1785.83 693.606L1753.99 658.497L1790.27 669.91L1785.83 693.606Z" fill="white"/>
<path d="M1883.47 119.3L1856.38 98.8523L1904.17 94.2348L1883.47 119.3Z" fill="white"/>
<path d="M71.4673 927.3L44.3758 906.852L92.1734 902.235L71.4673 927.3Z" fill="white"/>
<path d="M1832.14 821.078L1859.94 795.874L1811.35 797.604L1832.14 821.078Z" fill="#83CD20"/>
<path opacity="0.2" d="M1833.99 760.689L1804.51 594.471L1890.63 667.483L1833.99 760.689Z" fill="white"/>
<path opacity="0.5" d="M1905.72 811.302L1882.56 716.163L2001.98 701.083L1905.72 811.302Z" fill="#034833"/>
<path d="M1883.46 513.349L1962.16 502.602L1858.43 424L1883.46 513.349Z" fill="#83CD20"/>
<path opacity="0.2" d="M216.455 942.349L295.164 931.602L191.426 853L216.455 942.349Z" fill="white"/>
<path d="M1915.97 658.086L1896.63 642.834L1932.84 631.571L1915.97 658.086Z" fill="#034833"/>
<path opacity="0.2" d="M1774.95 516.659L1833.35 500.271L1804.69 417.001L1774.95 516.659Z" fill="white"/>
<path d="M1637.95 861.072L1660.88 866.428L1637.22 842L1637.95 861.072Z" fill="#034833"/>
<path d="M1639.56 810.633L1588.87 778.437L1599.72 742.001L1639.56 810.633Z" fill="#83CD20"/>
<path d="M118.39 607.973L58.5748 613.289L45.0011 577.778L118.39 607.973Z" fill="#83CD20"/>
<path opacity="0.2" d="M1449.99 872.728L1327.96 817.631L1431.67 778.397L1449.99 872.728Z" fill="white"/>
<path opacity="0.1" d="M1832.12 367.47L2031.39 291.609L1861.73 186.001L1832.12 367.47Z" fill="white"/>
<path opacity="0.3" d="M-61.8802 893.47L137.387 817.609L-32.2673 712.001L-61.8802 893.47Z" fill="#83CD20"/>
<path d="M1781.29 277.732L1815.7 231.535L1731.18 218.933L1781.29 277.732Z" fill="#83CD20"/>
<path opacity="0.1" d="M1445 827.394L1585.29 689.938L1587.64 838.722L1445 827.394Z" fill="white"/>
<path opacity="0.5" d="M1543.68 941.942L1490.8 979.593L1443.38 893.998L1543.68 941.942Z" fill="#034833"/>
<path d="M75.6765 156.942L22.7994 194.593L-24.6158 108.998L75.6765 156.942Z" fill="#83CD20"/>
<path opacity="0.5" d="M1457.24 762.283L1475.15 789.487L1488.24 739.927L1457.24 762.283Z" fill="#034833"/>
<path opacity="0.1" d="M125.715 474.423L207.718 386.068L18.0159 415.518L125.715 474.423Z" fill="white"/>
<path opacity="0.2" d="M1667.02 679.705L1673.43 641.715L1628.72 651.749L1667.02 679.705Z" fill="white"/>
<path opacity="0.5" d="M1340.28 1005.66L1185.93 910.16L1321.71 853.905L1340.28 1005.66Z" fill="#034833"/>
<path opacity="0.5" d="M-68.8919 826.466L130.391 750.598L-39.2673 645.001L-68.8919 826.466Z" stroke="white" stroke-miterlimit="10"/>
</g>
</g>
<defs>
<linearGradient id="paint0_linear_46_8" x1="1579.09" y1="712.257" x2="1895.22" y2="843.586" gradientUnits="userSpaceOnUse">
<stop offset="0.18" stop-color="#747378" stop-opacity="0.7"/>
<stop offset="0.27" stop-color="#8E8D91" stop-opacity="0.57"/>
<stop offset="0.46" stop-color="#BFBEC1" stop-opacity="0.32"/>
<stop offset="0.65" stop-color="#E2E2E3" stop-opacity="0.14"/>
<stop offset="0.83" stop-color="#F7F7F8" stop-opacity="0.04"/>
<stop offset="1" stop-color="white" stop-opacity="0"/>
</linearGradient>
<linearGradient id="paint1_linear_46_8" x1="1518.39" y1="795.502" x2="1202.3" y2="664.192" gradientUnits="userSpaceOnUse">
<stop offset="0.18" stop-color="#747378" stop-opacity="0.7"/>
<stop offset="0.27" stop-color="#8E8D91" stop-opacity="0.57"/>
<stop offset="0.46" stop-color="#BFBEC1" stop-opacity="0.32"/>
<stop offset="0.65" stop-color="#E2E2E3" stop-opacity="0.14"/>
<stop offset="0.83" stop-color="#F7F7F8" stop-opacity="0.04"/>
<stop offset="1" stop-color="white" stop-opacity="0"/>
</linearGradient>
<clipPath id="clip0_46_8">
<rect width="1920" height="900" fill="white"/>
</clipPath>
<clipPath id="clip1_46_8">
<rect width="1920" height="880" fill="white" transform="translate(0 20)"/>
</clipPath>
</defs>
</svg>
