<svg width="154" height="34" viewBox="0 0 154 34" fill="none" xmlns="http://www.w3.org/2000/svg">
<g clip-path="url(#clip0_592_390)">
<path d="M18.0945 33.3317C14.8636 33.3317 11.7052 32.3737 9.01885 30.5787C6.33247 28.7837 4.23868 26.2324 3.00227 23.2475C1.76587 20.2625 1.44237 16.9779 2.07268 13.8091C2.703 10.6403 4.25882 7.7296 6.5434 5.44501C8.82798 3.16043 11.7387 1.60461 14.9075 0.974293C18.0763 0.343978 21.3609 0.667478 24.3458 1.90389C27.3308 3.14029 29.8821 5.23408 31.6771 7.92046C33.472 10.6068 34.4301 13.7652 34.4301 16.9961C34.4253 21.3271 32.7027 25.4793 29.6402 28.5418C26.5777 31.6043 22.4255 33.3269 18.0945 33.3317Z" fill="#034833"/>
<path d="M18.094 32.3366C21.1279 32.3366 24.0938 31.4369 26.6164 29.7514C29.1391 28.0658 31.1053 25.67 32.2663 22.8669C33.4274 20.0639 33.7312 16.9795 33.1393 14.0039C32.5474 11.0282 31.0864 8.29485 28.941 6.1495C26.7957 4.00415 24.0623 2.54316 21.0867 1.95126C18.111 1.35936 15.0266 1.66314 12.2236 2.82419C9.42055 3.98525 7.02476 5.95142 5.33917 8.47408C3.65359 10.9967 2.75391 13.9626 2.75391 16.9966C2.7587 21.0635 4.37642 24.9625 7.2522 27.8383C10.128 30.7141 14.027 32.3318 18.094 32.3366Z" fill="white"/>
<path d="M38.2725 11.2035C38.0139 11.1079 37.326 10.2959 34.2358 10.5545C33.2014 10.6424 30.2042 11.5889 26.4157 12.7707L17.5458 9.19165L14.8719 9.47611L22.0015 14.149C19.5318 14.9093 16.9329 15.6825 14.4271 16.3548L9.21119 12.7344L7.76562 13.1275L12.1825 18.7701L10.9076 21.413L12.7566 21.1932L13.9823 19.4218C17.4592 19.3108 20.9201 18.8999 24.3263 18.1935L22.5937 25.1756L24.784 24.2343L28.1768 17.3582C38.8647 14.8032 39.7853 12.8482 39.987 12.3026C40.2042 11.682 38.5337 11.3018 38.2725 11.2035Z" fill="#034833"/>
<path d="M4.25098 27.9886L22.0063 24.7561L22.3425 22.8088L4.25098 27.9886Z" fill="#034833"/>
<path d="M2.22656 25.2578L22.692 21.1797L23.1058 19.1057L2.22656 25.2578Z" fill="#034833"/>
<path d="M10.548 20.5896L1.02637 22.5497L11.1453 19.4026L10.548 20.5896Z" fill="#034833"/>
<path d="M10.6082 17.7757L0.4375 20.0591L9.8841 16.9534L10.6082 17.7757Z" fill="#034833"/>
<path d="M9.04577 15.4814L0 17.5709L8.3217 14.6565L9.04577 15.4814Z" fill="#034833"/>
</g>
<path d="M133.536 28.7279L141.344 16.7279L133.6 4.88794H138.592L144.928 14.5839H142.624L148.928 4.88794H153.92L146.208 16.7279L153.984 28.7279H148.992L142.624 18.9039H144.928L138.528 28.7279H133.536Z" fill="#034833"/>
<path d="M125.238 29.1119C123.446 29.1119 121.878 28.7066 120.534 27.8959C119.19 27.0852 118.145 25.9866 117.398 24.5999C116.651 23.2132 116.278 21.6772 116.278 19.9919C116.278 18.2426 116.651 16.6959 117.398 15.3519C118.166 13.9866 119.2 12.9092 120.502 12.1199C121.824 11.3306 123.296 10.9359 124.918 10.9359C126.283 10.9359 127.478 11.1599 128.502 11.6079C129.547 12.0559 130.432 12.6746 131.158 13.4639C131.883 14.2532 132.438 15.1599 132.822 16.1839C133.206 17.1866 133.398 18.2746 133.398 19.4479C133.398 19.7466 133.376 20.0559 133.334 20.3759C133.312 20.6959 133.259 20.9732 133.174 21.2079H119.734V18.0079H130.806L128.822 19.5119C129.014 18.5306 128.961 17.6559 128.662 16.8879C128.385 16.1199 127.915 15.5119 127.254 15.0639C126.614 14.6159 125.835 14.3919 124.918 14.3919C124.043 14.3919 123.264 14.6159 122.582 15.0639C121.899 15.4906 121.376 16.1306 121.014 16.9839C120.672 17.8159 120.544 18.8292 120.63 20.0239C120.544 21.0906 120.683 22.0399 121.046 22.8719C121.43 23.6826 121.984 24.3119 122.71 24.7599C123.456 25.2079 124.31 25.4319 125.27 25.4319C126.23 25.4319 127.041 25.2292 127.702 24.8239C128.385 24.4186 128.918 23.8746 129.302 23.1919L132.694 24.8559C132.352 25.6879 131.819 26.4239 131.094 27.0639C130.369 27.7039 129.504 28.2052 128.502 28.5679C127.52 28.9306 126.432 29.1119 125.238 29.1119Z" fill="#034833"/>
<path d="M113.295 28.9199C111.333 28.9199 109.807 28.3866 108.719 27.3199C107.653 26.2319 107.119 24.7066 107.119 22.7439V15.0639H104.111V11.3199H104.431C105.285 11.3199 105.946 11.0959 106.415 10.6479C106.885 10.1999 107.119 9.54926 107.119 8.69593V7.35193H111.311V11.3199H115.311V15.0639H111.311V22.5199C111.311 23.0959 111.407 23.5866 111.599 23.9919C111.813 24.3973 112.133 24.7066 112.559 24.9199C113.007 25.1333 113.573 25.2399 114.255 25.2399C114.405 25.2399 114.575 25.2293 114.767 25.2079C114.981 25.1866 115.183 25.1653 115.375 25.1439V28.7279C115.077 28.7706 114.735 28.8133 114.351 28.8559C113.967 28.8986 113.615 28.9199 113.295 28.9199Z" fill="#034833"/>
<path d="M94.0385 29.1119C92.6945 29.1119 91.5212 28.8133 90.5185 28.2159C89.5372 27.6186 88.7799 26.7866 88.2465 25.7199C87.7345 24.6533 87.4785 23.4053 87.4785 21.9759V11.3199H91.6705V21.6239C91.6705 22.3493 91.8092 22.9893 92.0865 23.5439C92.3852 24.0773 92.8012 24.5039 93.3345 24.8239C93.8892 25.1226 94.5079 25.2719 95.1905 25.2719C95.8732 25.2719 96.4812 25.1226 97.0145 24.8239C97.5479 24.5039 97.9638 24.0666 98.2625 23.5119C98.5612 22.9573 98.7105 22.2959 98.7105 21.5279V11.3199H102.903V28.7279H98.9345V25.3039L99.2865 25.9119C98.8812 26.9786 98.2092 27.7786 97.2705 28.3119C96.3532 28.8453 95.2759 29.1119 94.0385 29.1119Z" fill="#034833"/>
<path d="M76.9074 29.1119C75.2007 29.1119 73.6434 28.7172 72.2354 27.9279C70.8487 27.1386 69.7394 26.0612 68.9074 24.6959C68.0967 23.3306 67.6914 21.7732 67.6914 20.0239C67.6914 18.2746 68.0967 16.7172 68.9074 15.3519C69.7394 13.9866 70.8487 12.9092 72.2354 12.1199C73.6221 11.3306 75.1794 10.9359 76.9074 10.9359C78.6141 10.9359 80.1607 11.3306 81.5474 12.1199C82.9341 12.9092 84.0327 13.9866 84.8434 15.3519C85.6754 16.6959 86.0914 18.2532 86.0914 20.0239C86.0914 21.7732 85.6754 23.3306 84.8434 24.6959C84.0114 26.0612 82.9021 27.1386 81.5154 27.9279C80.1287 28.7172 78.5927 29.1119 76.9074 29.1119ZM76.9074 25.2719C77.8461 25.2719 78.6674 25.0479 79.3714 24.5999C80.0967 24.1519 80.6621 23.5332 81.0674 22.7439C81.4941 21.9332 81.7074 21.0266 81.7074 20.0239C81.7074 18.9999 81.4941 18.1039 81.0674 17.3359C80.6621 16.5466 80.0967 15.9279 79.3714 15.4799C78.6674 15.0106 77.8461 14.7759 76.9074 14.7759C75.9474 14.7759 75.1047 15.0106 74.3794 15.4799C73.6541 15.9279 73.0781 16.5466 72.6514 17.3359C72.2461 18.1039 72.0434 18.9999 72.0434 20.0239C72.0434 21.0266 72.2461 21.9332 72.6514 22.7439C73.0781 23.5332 73.6541 24.1519 74.3794 24.5999C75.1047 25.0479 75.9474 25.2719 76.9074 25.2719Z" fill="#034833"/>
<path d="M50 28.7279V4.88794H58.864C60.4853 4.88794 61.9147 5.18661 63.152 5.78394C64.4107 6.35994 65.392 7.21327 66.096 8.34394C66.8 9.45327 67.152 10.8079 67.152 12.4079C67.152 14.0506 66.7573 15.4479 65.968 16.5999C65.2 17.7519 64.1547 18.6053 62.832 19.1599L68.304 28.7279H63.376L57.52 18.2639L60.336 19.9279H54.352V28.7279H50ZM54.352 16.0879H58.928C59.7173 16.0879 60.4 15.9386 60.976 15.6399C61.552 15.3199 62 14.8826 62.32 14.3279C62.64 13.7733 62.8 13.1333 62.8 12.4079C62.8 11.6613 62.64 11.0213 62.32 10.4879C62 9.93327 61.552 9.50661 60.976 9.20794C60.4 8.88794 59.7173 8.72794 58.928 8.72794H54.352V16.0879Z" fill="#034833"/>
<defs>
<clipPath id="clip0_592_390">
<rect width="40" height="32.6713" fill="white" transform="translate(0 0.664307)"/>
</clipPath>
</defs>
</svg>
